<?xml version="1.0" encoding="utf-8"?>
<!-- Generator: Adobe Illustrator 21.0.0, SVG Export Plug-In . SVG Version: 6.00 Build 0)  -->
<svg version="1.1" id="Layer_1" xmlns="http://www.w3.org/2000/svg" xmlns:xlink="http://www.w3.org/1999/xlink" x="0px" y="0px"
	 viewBox="0 0 542.3 99.2" style="enable-background:new 0 0 542.3 99.2;" xml:space="preserve">
<style type="text/css">
	.st0{fill:#424242;}
	.st1{fill:url(#XMLID_4_);}
</style>
<g>
	<path class="st0" d="M107.3,0h42.4c24.4,0,39.4,12.1,39.4,33.6c0,22.8-16.3,35-40.3,35h-25.3v30.5h-16.1L107.3,0L107.3,0z
		 M149,14.5h-25.7v39.7H149c14.5,0,23.5-6,23.5-20.1C172.6,21.2,163.3,14.5,149,14.5z"/>
	<path class="st0" d="M315.7,99.1h-35.5V0h35.5c30.8,0,50.6,20.1,50.6,49.6C366.3,79.2,346.6,99.1,315.7,99.1z M296,14.5v70.1h18.7
		c20.4,0,35.8-12.5,35.8-35s-15.4-35-35.8-35L296,14.5L296,14.5z"/>
	<path class="st0" d="M455.2,34.6l-30.1,32.7h-3.6l-30.3-32.7v64.5h-15.7V0h4.4l43.2,46.2L466.9,0h4.1v99.1h-15.7L455.2,34.6
		L455.2,34.6z"/>
	<path class="st0" d="M497.5,99.2h-15.7V0.1h15.7V99.2z"/>
	<path class="st0" d="M81.3,99.1h17.9L50.9,0h-3.1L0,99.1h17.7l7.6-16.4h48.1L81.3,99.1z M49,30.2h1L67,69H32L49,30.2z"/>
	<path class="st0" d="M254.3,99.1h17.9L223.9,0h-3.1L173,99.1h17.7l7.6-16.4h48.1L254.3,99.1z M222,30.2h1L240,69h-35L222,30.2z"/>
	<g id="XMLID_2_">
		
			<linearGradient id="XMLID_4_" gradientUnits="userSpaceOnUse" x1="525.9" y1="34.9359" x2="525.9" y2="2.1359" gradientTransform="matrix(1 0 0 -1 0 101.2)">
			<stop  offset="0" style="stop-color:#F5AB6F"/>
			<stop  offset="0.2866" style="stop-color:#F5AA6D"/>
			<stop  offset="0.3898" style="stop-color:#F5A666"/>
			<stop  offset="0.4631" style="stop-color:#F4A05B"/>
			<stop  offset="0.5186" style="stop-color:#F4974C"/>
		</linearGradient>
		<path id="XMLID_3_" class="st1" d="M542.3,99.1h-32.8V66.3h32.8V99.1z M517.2,91.4h17.4V74h-17.4V91.4z"/>
	</g>
</g>
</svg>
